<?xml version="1.0" encoding="UTF-8"?>
<svg id="Calque_1" data-name="Calque 1" xmlns="http://www.w3.org/2000/svg" viewBox="0 0 204.36 151.54">
  <defs>
    <style>
      .cls-1 {
        fill: #3a8233;
      }
    </style>
  </defs>
  <path class="cls-1" d="M56.69,121.26c-1.84-21.05-6.3-54.35-10.29-75.07-1.33-6.92-4.41-23.66,3.01-28.65,6.6-4.44,8.87,6.03,11.2,10.72,2.36,4.77,4.81,9.57,8.06,13.81,5.66,7.36,14.78,13.57,24.33,9.61,8.77-3.63,12.49-14.2,16.39-22.02,.99-1.99,1.99-3.96,3.07-5.9,1.3-2.34-.09-2.14,.21-1.92,4.34,3.22,5.36,15.01,6.23,19.93,2.52,14.34,2.33,28.76,3.82,43.16,1.72,16.57,16.65,23.23,32.24,22.17,18.17-1.24,32.64-13.68,39.38-30.18,8.04-19.67,6.72-44.92-7.98-61.26C173.16,.96,151.69-4.1,133.53,3.52c-7.78,3.27,3.43,10.19,8.69,7.98,31.18-13.09,46.59,25.6,42.07,50.03-2.09,11.32-7.46,22.86-16.8,29.98-12.19,9.28-30.08,8.7-31.08-9.59-.7-12.91-1.33-25.83-3.45-38.6-1.49-8.98-3.3-21.66-11.06-27.7-17.36-13.51-24.75,10.25-31.44,20.98-3.29,5.28-4.11,7.74-9.01,3.22-6.98-6.44-8.3-17.72-14.02-25.11-5.85-7.57-16.4-11.9-25.32-6.91-12.69,7.11-12.08,24.9-9.76,37.14,4,21.13,8.65,54.76,10.53,76.22,.49,5.59,14.4,6.82,13.81,.1h0Z"/>
  <g>
    <path class="cls-1" d="M7.93,139.94c.63,.37,1.07,.81,1.35,1.3,.27,.49,.41,1.1,.41,1.82s-.2,1.39-.61,1.99c-.41,.59-.97,1.06-1.69,1.4-.72,.34-1.53,.51-2.44,.51-.98,0-1.85-.14-2.6-.43-.75-.29-1.33-.69-1.74-1.21-.41-.52-.61-1.12-.61-1.82,0-.43,.11-.77,.33-1.02,.22-.25,.52-.38,.91-.38,.33,0,.61,.11,.83,.32s.33,.48,.33,.8c0,.43-.17,.76-.5,1,.25,.35,.64,.63,1.16,.84,.52,.21,1.13,.32,1.84,.32,.91,0,1.63-.2,2.17-.61,.54-.41,.81-.94,.81-1.61,0-.47-.08-.83-.24-1.11s-.45-.52-.88-.74c-.43-.22-1.09-.48-2-.77-1.12-.36-2-.73-2.64-1.11-.64-.38-1.1-.81-1.39-1.3-.29-.49-.43-1.09-.43-1.81s.21-1.36,.62-1.94,.99-1.02,1.73-1.34c.74-.32,1.58-.48,2.53-.48,1.3,0,2.34,.29,3.09,.86s1.14,1.35,1.14,2.34c0,.43-.11,.76-.33,1.02s-.52,.38-.91,.38c-.33,0-.61-.1-.83-.31s-.33-.47-.33-.79c0-.37,.13-.68,.4-.92-.32-.67-1.12-1-2.4-1-.88,0-1.58,.19-2.12,.58-.53,.39-.8,.9-.8,1.54,0,.44,.09,.79,.27,1.07,.18,.27,.49,.53,.94,.76,.45,.23,1.11,.49,2.01,.77,1.12,.35,1.99,.71,2.62,1.08Z"/>
    <path class="cls-1" d="M14.27,146.32c-.72-.42-1.27-1.01-1.66-1.79-.39-.77-.58-1.66-.58-2.67s.2-1.98,.6-2.78c.4-.8,.96-1.42,1.68-1.86s1.56-.66,2.52-.66,1.78,.21,2.5,.63c.72,.42,1.27,1.02,1.66,1.79,.39,.77,.58,1.66,.58,2.67s-.2,1.98-.6,2.78c-.4,.8-.96,1.42-1.68,1.86s-1.56,.66-2.52,.66-1.78-.21-2.5-.63Zm4.69-1.91c.52-.65,.78-1.56,.78-2.73s-.25-2.02-.76-2.64-1.22-.92-2.16-.92-1.66,.33-2.19,.99c-.53,.66-.79,1.57-.79,2.72s.25,2.01,.76,2.62c.51,.62,1.22,.93,2.16,.93s1.68-.33,2.2-.98Z"/>
    <path class="cls-1" d="M31.66,137.18c.6,.41,1.06,1,1.4,1.77,.33,.77,.5,1.66,.5,2.69,0,1.65-.39,2.95-1.18,3.89-.79,.95-1.86,1.42-3.21,1.42-.55,0-1.07-.13-1.58-.39s-.94-.63-1.3-1.11v4.31h.52c.44,0,.66,.18,.66,.54v.5c0,.36-.22,.54-.66,.54h-2.81c-.44,0-.66-.18-.66-.54v-.5c0-.36,.22-.54,.66-.54h.52v-11.42h-.52c-.44,0-.66-.18-.66-.54v-.5c0-.36,.22-.54,.66-.54h1.6c.2,0,.37,.07,.5,.21,.13,.14,.2,.32,.2,.53v1.26c.24-.62,.67-1.15,1.29-1.57,.62-.42,1.27-.63,1.97-.63,.81,0,1.52,.21,2.12,.62Zm-.63,7.22c.47-.66,.71-1.61,.71-2.87,0-1.08-.23-1.92-.68-2.51-.45-.6-1.09-.9-1.92-.9-.52,0-1,.14-1.44,.43-.44,.29-.79,.68-1.04,1.17-.25,.49-.38,1.03-.38,1.62v2.58c.36,.48,.77,.85,1.24,1.1,.47,.25,.95,.38,1.46,.38,.89,0,1.57-.33,2.05-.99Z"/>
    <path class="cls-1" d="M46.21,145.71v.5c0,.36-.21,.54-.64,.54h-2.83c-.43,0-.64-.18-.64-.54v-.5c0-.36,.21-.54,.64-.54h.52v-3.85c0-1.16-.15-1.98-.45-2.47-.3-.49-.8-.73-1.51-.73-.49,0-.97,.16-1.43,.49-.46,.33-.83,.75-1.12,1.27-.29,.52-.43,1.06-.43,1.64v3.65h.52c.44,0,.66,.18,.66,.54v.5c0,.36-.22,.54-.66,.54h-2.81c-.44,0-.66-.18-.66-.54v-.5c0-.36,.22-.54,.66-.54h.52v-11.62h-.52c-.44,0-.66-.18-.66-.54v-.5c0-.36,.22-.54,.66-.54h1.58c.2,0,.37,.07,.51,.21,.14,.14,.21,.32,.21,.53v6.29c.29-.69,.76-1.27,1.4-1.74,.64-.47,1.3-.7,2-.7,1.1,0,1.94,.38,2.5,1.13,.56,.75,.84,1.87,.84,3.34v4.13h.52c.43,0,.64,.18,.64,.54Z"/>
    <path class="cls-1" d="M55.02,136.93c.28,.25,.42,.59,.42,1.03,0,.35-.11,.64-.34,.87-.23,.23-.52,.35-.88,.35-.32,0-.59-.1-.8-.29s-.33-.44-.36-.75c-.41,.04-.79,.24-1.14,.59-.35,.35-.62,.81-.83,1.36-.21,.55-.31,1.14-.31,1.77v3.31h.94c.44,0,.66,.18,.66,.54v.5c0,.36-.22,.54-.66,.54h-3.25c-.43,0-.64-.18-.64-.54v-.5c0-.36,.21-.54,.64-.54h.52v-6.83h-.52c-.43,0-.64-.18-.64-.54v-.5c0-.36,.21-.54,.64-.54h1.58c.21,0,.39,.07,.53,.21s.21,.32,.21,.53v1.76c.24-.83,.63-1.48,1.17-1.97,.54-.49,1.15-.73,1.85-.73,.53,0,.94,.12,1.22,.37Z"/>
    <path class="cls-1" d="M58.97,146.32c-.72-.42-1.27-1.01-1.66-1.79-.39-.77-.58-1.66-.58-2.67s.2-1.98,.6-2.78c.4-.8,.96-1.42,1.68-1.86s1.56-.66,2.52-.66,1.78,.21,2.5,.63c.72,.42,1.27,1.02,1.66,1.79,.39,.77,.58,1.66,.58,2.67s-.2,1.98-.6,2.78c-.4,.8-.96,1.42-1.68,1.86s-1.56,.66-2.52,.66-1.78-.21-2.5-.63Zm4.69-1.91c.52-.65,.78-1.56,.78-2.73s-.25-2.02-.76-2.64-1.22-.92-2.16-.92-1.66,.33-2.19,.99c-.53,.66-.79,1.57-.79,2.72s.25,2.01,.76,2.62c.51,.62,1.22,.93,2.16,.93s1.68-.33,2.2-.98Z"/>
    <path class="cls-1" d="M68.03,146.21v-.5c0-.36,.22-.54,.66-.54h.52v-11.62h-.52c-.44,0-.66-.18-.66-.54v-.5c0-.36,.22-.54,.66-.54h1.58c.2,0,.37,.07,.51,.21,.14,.14,.21,.32,.21,.53v12.46h.52c.44,0,.66,.18,.66,.54v.5c0,.36-.22,.54-.66,.54h-2.81c-.44,0-.66-.18-.66-.54Z"/>
    <path class="cls-1" d="M76.18,146.32c-.72-.42-1.27-1.01-1.66-1.79-.39-.77-.58-1.66-.58-2.67s.2-1.98,.6-2.78c.4-.8,.96-1.42,1.68-1.86s1.56-.66,2.52-.66,1.78,.21,2.5,.63c.72,.42,1.27,1.02,1.66,1.79,.39,.77,.58,1.66,.58,2.67s-.2,1.98-.6,2.78c-.4,.8-.96,1.42-1.68,1.86s-1.56,.66-2.52,.66-1.78-.21-2.5-.63Zm4.69-1.91c.52-.65,.78-1.56,.78-2.73s-.25-2.02-.76-2.64-1.22-.92-2.16-.92-1.66,.33-2.19,.99c-.53,.66-.79,1.57-.79,2.72s.25,2.01,.76,2.62c.51,.62,1.22,.93,2.16,.93s1.68-.33,2.2-.98Z"/>
    <path class="cls-1" d="M95.8,137.3v.5c0,.36-.22,.54-.66,.54h-.52v7.91c0,1.74-.39,3.06-1.18,3.95-.79,.89-1.95,1.34-3.49,1.34-.71,0-1.35-.11-1.93-.32-.58-.21-1.03-.5-1.36-.86s-.49-.77-.49-1.22c0-.4,.11-.71,.32-.94,.21-.23,.5-.34,.86-.34,.31,0,.56,.11,.77,.32,.21,.21,.31,.48,.31,.8,0,.24-.06,.43-.18,.56,.37,.29,.91,.44,1.6,.44,1.05,0,1.81-.29,2.29-.86,.47-.57,.71-1.5,.71-2.78v-1.6c-.24,.62-.67,1.15-1.29,1.57-.62,.42-1.27,.63-1.97,.63-.8,0-1.5-.21-2.11-.62-.61-.41-1.07-1-1.4-1.77-.33-.77-.49-1.66-.49-2.69,0-1.65,.39-2.95,1.17-3.89,.78-.95,1.85-1.42,3.2-1.42,.59,0,1.14,.15,1.67,.44s.97,.7,1.33,1.22l.08-.82c.04-.43,.26-.64,.66-.64h1.44c.44,0,.66,.18,.66,.54Zm-4.37,7.66c.44-.29,.79-.67,1.04-1.17,.25-.49,.38-1.03,.38-1.62v-2.6c-.37-.47-.79-.83-1.25-1.08-.46-.25-.94-.38-1.45-.38-.89,0-1.57,.33-2.04,.99-.47,.66-.7,1.61-.7,2.86,0,1.08,.23,1.92,.68,2.52s1.08,.9,1.9,.9c.52,0,1-.14,1.44-.43Z"/>
    <path class="cls-1" d="M107.92,145.71v.5c0,.36-.21,.54-.64,.54h-1.58c-.21,0-.39-.07-.53-.21-.14-.14-.21-.32-.21-.53v-1.5c-.29,.71-.74,1.29-1.35,1.75s-1.25,.69-1.93,.69c-1.09,0-1.9-.37-2.43-1.1-.53-.73-.79-1.86-.79-3.37v-4.13h-.52c-.43,0-.64-.18-.64-.54v-.5c0-.36,.21-.54,.64-.54h1.62c.19,0,.35,.07,.49,.21s.21,.32,.21,.53v4.69c0,.81,.06,1.44,.17,1.9,.11,.45,.31,.78,.58,.99,.27,.21,.64,.31,1.11,.31s.94-.16,1.38-.48c.44-.32,.79-.74,1.06-1.27,.27-.53,.4-1.07,.4-1.65v-3.65h-.52c-.44,0-.66-.18-.66-.54v-.5c0-.36,.22-.54,.66-.54h1.6c.21,0,.39,.07,.52,.21,.13,.14,.2,.32,.2,.53v7.67h.52c.43,0,.64,.18,.64,.54Z"/>
    <path class="cls-1" d="M118.6,142.14h-7.09c.07,1.01,.36,1.81,.88,2.39,.52,.58,1.21,.87,2.08,.87,.59,0,1.05-.09,1.4-.28s.67-.52,.98-1c.11-.16,.21-.27,.31-.34s.22-.1,.35-.1c.2,0,.38,.06,.53,.19,.15,.13,.23,.28,.23,.47,0,.25-.09,.51-.28,.78-.39,.62-.87,1.09-1.44,1.39-.57,.3-1.28,.45-2.14,.45-.95,0-1.77-.22-2.49-.66s-1.26-1.06-1.66-1.86c-.39-.8-.59-1.72-.59-2.75s.19-1.92,.58-2.7c.39-.77,.93-1.37,1.64-1.79,.71-.42,1.52-.63,2.46-.63,1.29,0,2.33,.41,3.12,1.24,.79,.83,1.19,1.98,1.19,3.45,0,.07-.02,.36-.06,.88Zm-6.18-3.38c-.47,.47-.76,1.15-.87,2.05h5.29c-.01-1.84-.86-2.75-2.54-2.75-.79,0-1.42,.24-1.89,.71Z"/>
    <path class="cls-1" d="M126.93,140.8c-.12-.12-.18-.28-.18-.48v-.24c0-.21,.06-.38,.18-.5,.12-.12,.3-.18,.54-.18h10.8c.24,0,.42,.06,.54,.18,.12,.12,.18,.29,.18,.5v.24c0,.2-.06,.36-.18,.48-.12,.12-.3,.18-.54,.18h-10.8c-.24,0-.42-.06-.54-.18Z"/>
    <path class="cls-1" d="M158.05,143.09c.16,.13,.24,.3,.24,.5,0,.28-.1,.57-.3,.88-.51,.83-1.14,1.44-1.9,1.86-.76,.41-1.66,.62-2.72,.62-1.22,0-2.28-.3-3.16-.89-.88-.59-1.56-1.43-2.04-2.52s-.71-2.36-.71-3.82c0-2.25,.52-4,1.57-5.26,1.04-1.26,2.51-1.89,4.38-1.89,.88,0,1.69,.16,2.44,.48,.75,.32,1.34,.75,1.78,1.29,.44,.54,.66,1.13,.66,1.79,0,.43-.11,.76-.33,1.02s-.52,.38-.91,.38c-.33,0-.61-.11-.83-.32-.22-.21-.33-.48-.33-.8,0-.39,.14-.7,.42-.94-.24-.41-.62-.74-1.14-.97-.52-.23-1.1-.35-1.74-.35-2.77,0-4.15,1.85-4.15,5.55,0,1.82,.35,3.22,1.05,4.2,.7,.98,1.73,1.47,3.1,1.47,.75,0,1.39-.15,1.93-.46,.54-.31,.99-.78,1.35-1.42,.12-.24,.23-.4,.34-.48s.25-.12,.42-.12c.23,0,.42,.07,.58,.2Z"/>
    <path class="cls-1" d="M162.8,146.32c-.72-.42-1.27-1.01-1.66-1.79-.39-.77-.58-1.66-.58-2.67s.2-1.98,.6-2.78,.96-1.42,1.68-1.86c.72-.44,1.56-.66,2.52-.66s1.78,.21,2.5,.63c.72,.42,1.27,1.02,1.66,1.79s.58,1.66,.58,2.67-.2,1.98-.6,2.78c-.4,.8-.96,1.42-1.68,1.86s-1.56,.66-2.52,.66-1.78-.21-2.5-.63Zm4.69-1.91c.52-.65,.78-1.56,.78-2.73s-.25-2.02-.76-2.64-1.22-.92-2.16-.92-1.66,.33-2.19,.99c-.53,.66-.79,1.57-.79,2.72s.25,2.01,.76,2.62c.51,.62,1.22,.93,2.16,.93s1.68-.33,2.2-.98Z"/>
    <path class="cls-1" d="M181.45,145.71v.5c0,.36-.21,.54-.64,.54h-1.6c-.2,0-.37-.07-.51-.21s-.21-.32-.21-.53v-1.26c-.25,.62-.69,1.15-1.31,1.57-.62,.42-1.27,.63-1.97,.63-.93,0-1.68-.27-2.26-.81-.57-.54-.86-1.25-.86-2.15s.32-1.65,.95-2.16c.63-.51,1.53-.76,2.71-.76,.89,0,1.8,.11,2.73,.32v-.9c0-.82-.19-1.44-.58-1.84-.39-.4-.98-.6-1.8-.6-.63,0-1.09,.12-1.4,.36,.09,.16,.14,.33,.14,.52,0,.31-.11,.57-.32,.78s-.47,.32-.78,.32c-.36,0-.65-.11-.86-.34s-.32-.53-.32-.92c0-.65,.34-1.18,1.02-1.6,.68-.41,1.54-.62,2.59-.62,1.32,0,2.33,.35,3.02,1.06,.7,.71,1.05,1.7,1.05,2.99v4.55h.54c.43,0,.64,.18,.64,.54Zm-4.4-.63c.43-.27,.78-.64,1.04-1.1s.4-.96,.41-1.51c-.6-.09-1.42-.14-2.48-.14-1.44,0-2.16,.53-2.16,1.6,0,.49,.16,.88,.48,1.15,.32,.27,.75,.41,1.3,.41,.51,0,.97-.14,1.41-.41Z"/>
    <path class="cls-1" d="M191.5,143.86c.15,.13,.23,.28,.23,.47,0,.25-.09,.51-.28,.78-.39,.62-.87,1.09-1.44,1.39-.57,.3-1.28,.45-2.14,.45-.95,0-1.77-.22-2.49-.66s-1.26-1.06-1.66-1.86c-.39-.8-.59-1.72-.59-2.75s.2-1.92,.59-2.7,.94-1.37,1.65-1.79c.71-.42,1.52-.63,2.46-.63,.77,0,1.46,.13,2.06,.4,.6,.27,1.06,.64,1.4,1.13,.33,.49,.5,1.04,.5,1.65,0,.41-.11,.74-.34,.98-.23,.24-.53,.36-.9,.36-.33,0-.61-.11-.83-.32s-.33-.48-.33-.8c0-.37,.13-.67,.38-.9-.16-.31-.41-.54-.75-.7-.34-.16-.75-.24-1.25-.24-.91,0-1.6,.31-2.09,.92-.49,.61-.73,1.48-.73,2.62s.26,2.07,.79,2.74c.53,.67,1.25,1,2.19,1,.59,0,1.05-.09,1.4-.28s.67-.52,.98-1c.11-.16,.21-.27,.31-.34s.22-.1,.35-.1c.2,0,.38,.06,.53,.19Z"/>
    <path class="cls-1" d="M204.36,145.71v.5c0,.36-.21,.54-.64,.54h-2.83c-.43,0-.64-.18-.64-.54v-.5c0-.36,.21-.54,.64-.54h.52v-3.85c0-1.16-.15-1.98-.45-2.47-.3-.49-.8-.73-1.51-.73-.49,0-.97,.16-1.43,.49s-.83,.75-1.12,1.27c-.29,.52-.43,1.06-.43,1.64v3.65h.52c.44,0,.66,.18,.66,.54v.5c0,.36-.22,.54-.66,.54h-2.81c-.44,0-.66-.18-.66-.54v-.5c0-.36,.22-.54,.66-.54h.52v-11.62h-.52c-.44,0-.66-.18-.66-.54v-.5c0-.36,.22-.54,.66-.54h1.58c.2,0,.37,.07,.51,.21s.21,.32,.21,.53v6.29c.29-.69,.76-1.27,1.4-1.74s1.3-.7,2-.7c1.1,0,1.94,.38,2.5,1.13,.56,.75,.84,1.87,.84,3.34v4.13h.52c.43,0,.64,.18,.64,.54Z"/>
  </g>
  <g>
    <path class="cls-1" d="M78.91,114.31v9.3h.36c.27,0,.48,.06,.64,.19,.16,.13,.24,.32,.24,.59v.78c0,.27-.08,.46-.24,.59-.16,.13-.37,.19-.64,.19h-3.51c-.57,0-.86-.26-.86-.78v-.78c0-.52,.29-.78,.86-.78h.36v-8.82l-2.97,6.71c-.15,.36-.39,.54-.74,.54h-.84c-.35,0-.59-.18-.74-.54l-2.97-6.71v8.82h.36c.57,0,.86,.26,.86,.78v.78c0,.52-.29,.78-.86,.78h-3.11c-.27,0-.48-.06-.64-.19-.16-.13-.24-.32-.24-.59v-.78c0-.27,.08-.46,.24-.59,.16-.13,.37-.19,.64-.19h.36v-9.3h-.36c-.27,0-.48-.06-.64-.19-.16-.13-.24-.32-.24-.59v-.78c0-.27,.08-.46,.24-.59,.16-.13,.37-.19,.62-.19h3.83c.39,0,.65,.18,.78,.54l2.54,5.75,2.52-5.75c.15-.36,.41-.54,.78-.54h3.75c.27,0,.48,.06,.64,.19,.16,.13,.24,.32,.24,.59v.78c0,.27-.08,.46-.24,.59-.16,.13-.37,.19-.64,.19h-.36Z"/>
    <path class="cls-1" d="M91.65,123.8c.16,.13,.24,.32,.24,.59v.78c0,.27-.08,.46-.24,.59-.16,.13-.37,.19-.62,.19h-2.22c-.25,0-.47-.09-.65-.27s-.27-.4-.27-.65v-.96c-.27,.61-.67,1.11-1.21,1.5-.54,.39-1.11,.58-1.73,.58-.92,0-1.66-.27-2.23-.82-.57-.54-.85-1.26-.85-2.16,0-1.01,.33-1.76,.98-2.25,.65-.49,1.64-.73,2.95-.73,.61,0,1.3,.07,2.08,.22v-.74c0-.57-.15-1.01-.45-1.32s-.73-.46-1.29-.46c-.36,0-.63,.06-.8,.18-.03,.41-.18,.75-.46,1.03-.28,.27-.63,.41-1.04,.41-.45,0-.82-.14-1.1-.41-.28-.27-.42-.63-.42-1.07,0-.69,.35-1.24,1.06-1.66,.71-.41,1.62-.62,2.75-.62,1.48,0,2.6,.38,3.35,1.13,.76,.75,1.14,1.81,1.14,3.16v3.55h.38c.25,0,.46,.06,.62,.19Zm-4.44-.36c.41-.45,.64-.98,.69-1.61-.44-.08-.99-.12-1.66-.12-.56,0-.96,.1-1.22,.31s-.38,.54-.38,.99c0,.33,.11,.6,.32,.8,.21,.2,.49,.3,.84,.3,.53,0,1-.22,1.41-.67Z"/>
    <path class="cls-1" d="M101.61,116.28c.33,.34,.5,.79,.5,1.37,0,.51-.16,.92-.48,1.26s-.73,.5-1.24,.5c-.4,0-.74-.11-1.01-.34-.27-.23-.45-.53-.53-.92-.45,.15-.83,.47-1.14,.97s-.46,1.06-.46,1.69v2.81h.74c.57,0,.86,.26,.86,.78v.78c0,.52-.29,.78-.86,.78h-3.87c-.25,0-.46-.06-.62-.19-.16-.13-.24-.32-.24-.59v-.78c0-.27,.08-.46,.24-.59,.16-.13,.37-.19,.62-.19h.38v-5.31h-.38c-.25,0-.46-.06-.62-.19-.16-.13-.24-.32-.24-.59v-.78c0-.52,.29-.78,.86-.78h2.22c.27,0,.49,.09,.66,.26,.17,.17,.26,.39,.26,.66v1.42c.23-.79,.6-1.4,1.13-1.86,.53-.45,1.11-.68,1.77-.68s1.12,.17,1.46,.51Z"/>
    <path class="cls-1" d="M103.67,125.76c-.16-.13-.24-.32-.24-.59v-.78c0-.27,.08-.46,.24-.59,.16-.13,.37-.19,.62-.19h.38v-5.31h-.38c-.25,0-.46-.06-.62-.19-.16-.13-.24-.32-.24-.59v-.78c0-.52,.29-.78,.86-.78h2.22c.27,0,.49,.09,.66,.26s.26,.39,.26,.66v6.73h.36c.27,0,.48,.06,.64,.19,.16,.13,.24,.32,.24,.59v.78c0,.27-.08,.46-.24,.59-.16,.13-.37,.19-.64,.19h-3.49c-.25,0-.46-.06-.62-.19Zm.75-11.9c-.34-.34-.51-.76-.51-1.27s.17-.93,.51-1.27c.34-.34,.76-.51,1.27-.51s.93,.17,1.27,.51c.34,.34,.51,.76,.51,1.27s-.17,.93-.51,1.27c-.34,.34-.76,.51-1.27,.51s-.93-.17-1.27-.51Z"/>
    <path class="cls-1" d="M119.32,121.54h-6.41c.11,.72,.36,1.29,.76,1.7s.92,.62,1.58,.62c.43,0,.77-.06,1.03-.19,.26-.13,.52-.34,.77-.63,.27-.29,.55-.44,.86-.44s.54,.09,.76,.26c.21,.17,.32,.41,.32,.7,0,.32-.11,.64-.34,.96-.36,.49-.83,.89-1.41,1.19-.58,.3-1.28,.45-2.11,.45-1.04,0-1.94-.22-2.71-.66s-1.35-1.05-1.76-1.85-.61-1.71-.61-2.75,.2-1.96,.61-2.74c.41-.77,.98-1.36,1.72-1.78,.74-.41,1.59-.62,2.57-.62,.83,0,1.57,.18,2.24,.53,.67,.35,1.2,.88,1.6,1.59,.4,.71,.6,1.56,.6,2.58,0,.2-.02,.56-.06,1.08Zm-6.37-1.72h3.61v-.22c0-.57-.15-1-.45-1.3-.3-.29-.71-.44-1.23-.44-1.09,0-1.74,.65-1.94,1.96Z"/>
    <path class="cls-1" d="M137.62,113.69c1.17,1.15,1.76,2.77,1.76,4.87,0,1.45-.28,2.74-.83,3.85-.55,1.12-1.33,1.99-2.35,2.6-1.01,.62-2.17,.93-3.47,.93h-4.91c-.27,0-.48-.06-.64-.19-.16-.13-.24-.32-.24-.59v-.78c0-.27,.08-.46,.24-.59,.16-.13,.37-.19,.64-.19h.36v-9.3h-.36c-.27,0-.48-.06-.64-.19-.16-.13-.24-.32-.24-.59v-.78c0-.27,.08-.46,.24-.59,.16-.13,.37-.19,.62-.19h4.87c2.13,0,3.78,.57,4.95,1.72Zm-2.14,8.62c.69-.86,1.04-2.08,1.04-3.63,0-1.46-.33-2.56-.98-3.28-.65-.73-1.64-1.09-2.97-1.09h-1.6v9.3h1.62c1.24,0,2.2-.43,2.89-1.3Z"/>
    <path class="cls-1" d="M149.7,116.28c.33,.34,.5,.79,.5,1.37,0,.51-.16,.92-.48,1.26s-.73,.5-1.24,.5c-.4,0-.74-.11-1.01-.34-.27-.23-.45-.53-.53-.92-.45,.15-.83,.47-1.14,.97s-.46,1.06-.46,1.69v2.81h.74c.57,0,.86,.26,.86,.78v.78c0,.52-.29,.78-.86,.78h-3.87c-.25,0-.46-.06-.62-.19-.16-.13-.24-.32-.24-.59v-.78c0-.27,.08-.46,.24-.59,.16-.13,.37-.19,.62-.19h.38v-5.31h-.38c-.25,0-.46-.06-.62-.19-.16-.13-.24-.32-.24-.59v-.78c0-.52,.29-.78,.86-.78h2.22c.27,0,.49,.09,.66,.26,.17,.17,.26,.39,.26,.66v1.42c.23-.79,.6-1.4,1.13-1.86,.53-.45,1.11-.68,1.77-.68s1.12,.17,1.46,.51Z"/>
    <path class="cls-1" d="M162.72,123.8c.16,.13,.24,.32,.24,.59v.78c0,.27-.08,.46-.24,.59-.16,.13-.37,.19-.62,.19h-2.22c-.25,0-.47-.09-.65-.27s-.27-.4-.27-.65v-1.08c-.27,.64-.67,1.16-1.22,1.58-.55,.41-1.12,.62-1.72,.62-1.09,0-1.92-.35-2.5-1.06-.57-.71-.86-1.72-.86-3.03v-3.75h-.36c-.57,0-.86-.26-.86-.78v-.78c0-.52,.29-.78,.86-.78h2.22c.27,0,.49,.09,.66,.26,.17,.17,.26,.39,.26,.66v4.39c0,.97,.1,1.64,.29,2.02,.19,.37,.55,.56,1.07,.56,.39,0,.75-.12,1.08-.36,.33-.24,.6-.56,.79-.97,.19-.41,.29-.83,.29-1.29v-2.93h-.36c-.27,0-.48-.06-.64-.19-.16-.13-.24-.32-.24-.59v-.78c0-.27,.08-.46,.24-.59,.16-.13,.37-.19,.64-.19h2.22c.25,0,.47,.09,.64,.26,.17,.17,.26,.39,.26,.66v6.73h.38c.25,0,.46,.06,.62,.19Z"/>
    <path class="cls-1" d="M181.84,123.8c.16,.13,.24,.32,.24,.59v.78c0,.27-.08,.46-.24,.59-.16,.13-.37,.19-.64,.19h-3.35c-.57,0-.86-.26-.86-.78v-.78c0-.52,.29-.78,.86-.78h.24v-2.97c0-.97-.1-1.64-.29-2.02-.19-.37-.54-.56-1.05-.56-.37,0-.73,.12-1.06,.36-.33,.24-.6,.56-.79,.97-.19,.41-.29,.83-.29,1.29v2.93h.24c.25,0,.46,.06,.62,.19,.16,.13,.24,.32,.24,.59v.78c0,.27-.08,.46-.24,.59-.16,.13-.37,.19-.62,.19h-3.23c-.57,0-.86-.26-.86-.78v-.78c0-.52,.29-.78,.86-.78h.24v-2.97c0-.97-.1-1.64-.29-2.02-.19-.37-.54-.56-1.05-.56-.37,0-.73,.12-1.06,.36-.33,.24-.6,.56-.79,.97-.19,.41-.29,.83-.29,1.29v2.93h.24c.25,0,.46,.06,.62,.19,.16,.13,.24,.32,.24,.59v.78c0,.27-.08,.46-.24,.59-.16,.13-.37,.19-.62,.19h-3.37c-.25,0-.46-.06-.62-.19-.16-.13-.24-.32-.24-.59v-.78c0-.27,.08-.46,.24-.59,.16-.13,.37-.19,.62-.19h.38v-5.31h-.38c-.25,0-.46-.06-.62-.19-.16-.13-.24-.32-.24-.59v-.78c0-.52,.29-.78,.86-.78h2.22c.27,0,.49,.09,.66,.26,.17,.17,.26,.39,.26,.66v1.08c.27-.65,.67-1.18,1.2-1.59,.53-.41,1.1-.61,1.72-.61,.81,0,1.48,.2,2,.6,.52,.4,.88,.98,1.1,1.74,.39-.75,.86-1.32,1.41-1.73,.55-.41,1.13-.61,1.73-.61,1.08,0,1.9,.35,2.46,1.05,.57,.7,.85,1.71,.85,3.04v3.75h.36c.27,0,.48,.06,.64,.19Z"/>
    <path class="cls-1" d="M192.68,121.54h-6.41c.11,.72,.36,1.29,.76,1.7s.92,.62,1.58,.62c.43,0,.77-.06,1.03-.19,.26-.13,.52-.34,.77-.63,.27-.29,.55-.44,.86-.44s.54,.09,.76,.26c.21,.17,.32,.41,.32,.7,0,.32-.11,.64-.34,.96-.36,.49-.83,.89-1.41,1.19-.58,.3-1.28,.45-2.11,.45-1.04,0-1.94-.22-2.71-.66s-1.35-1.05-1.76-1.85-.61-1.71-.61-2.75,.2-1.96,.61-2.74c.41-.77,.98-1.36,1.72-1.78,.74-.41,1.59-.62,2.57-.62,.83,0,1.57,.18,2.24,.53,.67,.35,1.2,.88,1.6,1.59,.4,.71,.6,1.56,.6,2.58,0,.2-.02,.56-.06,1.08Zm-6.37-1.72h3.61v-.22c0-.57-.15-1-.45-1.3-.3-.29-.71-.44-1.23-.44-1.09,0-1.74,.65-1.94,1.96Z"/>
    <path class="cls-1" d="M203.21,122.12c.13,.16,.19,.37,.19,.64v2.28c0,.25-.09,.47-.26,.65s-.39,.27-.66,.27h-7.05c-.25,0-.46-.08-.63-.24-.17-.16-.25-.37-.25-.62v-.34c0-.2,.04-.39,.12-.56,.08-.17,.21-.37,.38-.58l4.57-5.51h-2.66v.7c0,.57-.27,.86-.8,.86h-.76c-.53,0-.8-.29-.8-.86v-1.92c0-.27,.09-.49,.27-.66,.18-.17,.4-.26,.65-.26h6.85c.25,0,.46,.08,.63,.24,.17,.16,.25,.37,.25,.62v.34c0,.2-.04,.39-.12,.56s-.21,.36-.38,.56l-4.57,5.51h2.86v-1.04c0-.27,.06-.48,.19-.64,.13-.16,.33-.24,.61-.24h.76c.28,0,.48,.08,.61,.24Z"/>
  </g>
</svg>