<?xml version="1.0" encoding="UTF-8"?>
<svg id="Calque_1" data-name="Calque 1" xmlns="http://www.w3.org/2000/svg" viewBox="0 0 142.29 31.31">
  <defs>
    <style>
      .cls-1 {
        fill: #3a8233;
      }
    </style>
  </defs>
  <path class="cls-1" d="M6.87,30.04c-.51-5.83-1.51-11.52-2.61-17.26-.37-1.92-1.22-6.55,.83-7.93,1.83-1.23,2.46,1.67,3.1,2.97s1.33,2.65,2.23,3.82c1.57,2.04,4.09,3.76,6.74,2.66,2.43-1.01,3.46-3.93,4.54-6.1,.27-.55,.55-1.1,.85-1.63,.36-.65-.03-.59,.06-.53,1.2,.89,1.49,4.15,1.72,5.52,.7,3.97,.64,7.96,1.06,11.95,.48,4.59,4.61,6.43,8.92,6.14,5.03-.34,9.04-3.79,10.9-8.36,2.22-5.45,1.86-12.44-2.21-16.96C39.34,.27,33.4-1.14,28.37,.98c-2.15,.9,.95,2.82,2.4,2.21,8.63-3.62,12.9,7.09,11.65,13.85-.58,3.13-2.06,6.33-4.65,8.3-3.37,2.57-8.33,2.41-8.6-2.65-.19-3.57-.37-7.15-.95-10.69-.41-2.49-.91-6-3.06-7.67-4.81-3.74-6.85,2.84-8.7,5.81-.91,1.46-1.14,2.14-2.49,.89-1.93-1.78-2.3-4.9-3.88-6.95S5.54,.77,3.07,2.16C-.44,4.13-.28,9.05,.37,12.44c1.11,5.85,2.16,11.63,2.68,17.57,.14,1.55,3.98,1.89,3.82,.03h0Z"/>
  <g>
    <path class="cls-1" d="M52.33,25.75c.29,.17,.49,.36,.61,.58s.18,.51,.18,.85-.09,.65-.28,.93c-.19,.28-.45,.49-.79,.65-.34,.16-.71,.24-1.13,.24-.45,0-.85-.06-1.19-.19s-.61-.3-.8-.54-.28-.5-.28-.8c0-.22,.06-.4,.19-.54s.29-.21,.5-.21c.19,0,.35,.06,.47,.18,.12,.12,.18,.27,.18,.45,0,.16-.05,.3-.14,.42,.12,.1,.27,.17,.44,.23,.17,.05,.37,.08,.58,.08,.37,0,.65-.08,.86-.23s.31-.35,.31-.61c0-.17-.03-.3-.09-.4-.06-.1-.17-.19-.34-.27s-.42-.18-.77-.3c-.52-.16-.92-.33-1.22-.5-.3-.17-.51-.38-.65-.61-.13-.23-.2-.51-.2-.84,0-.35,.1-.66,.29-.93,.19-.27,.46-.49,.81-.64,.34-.15,.74-.23,1.18-.23,.39,0,.74,.06,1.04,.18s.53,.29,.69,.51c.16,.22,.24,.48,.24,.77,0,.22-.06,.4-.18,.54-.12,.14-.29,.2-.5,.2-.2,0-.36-.06-.48-.17-.12-.11-.18-.26-.18-.44,0-.15,.04-.28,.12-.4-.13-.19-.41-.28-.84-.28-.34,0-.6,.07-.81,.22s-.3,.34-.3,.59c0,.17,.04,.3,.11,.41,.07,.1,.2,.2,.37,.29s.44,.19,.79,.3c.52,.17,.93,.33,1.21,.5Z"/>
    <path class="cls-1" d="M54.67,28.39c-.39-.41-.58-.97-.58-1.68,0-.48,.09-.9,.27-1.26,.18-.36,.44-.64,.78-.83,.34-.2,.73-.29,1.19-.29,.68,0,1.21,.2,1.6,.61,.39,.41,.58,.97,.58,1.67,0,.48-.09,.9-.28,1.26-.18,.36-.44,.64-.78,.84-.34,.2-.73,.29-1.18,.29-.68,0-1.21-.21-1.6-.62Zm2.45-.67c.2-.25,.29-.62,.29-1.1s-.09-.8-.28-1.04c-.19-.24-.46-.36-.82-.36s-.64,.13-.84,.39c-.2,.26-.3,.62-.3,1.09s.1,.8,.29,1.04c.19,.24,.47,.36,.82,.36s.65-.13,.84-.38Z"/>
    <path class="cls-1" d="M63.56,24.94c.32,.41,.48,.96,.48,1.65,0,.76-.18,1.36-.53,1.78-.35,.43-.84,.64-1.47,.64-.23,0-.45-.05-.65-.14-.21-.1-.39-.24-.54-.42v1.63h.19c.23,0,.35,.1,.35,.31v.31c0,.2-.12,.31-.35,.31h-1.46c-.23,0-.35-.1-.35-.31v-.31c0-.2,.12-.31,.35-.31h.2v-4.74h-.2c-.23,0-.35-.1-.35-.31v-.31c0-.2,.12-.31,.35-.31h.89c.11,0,.2,.04,.27,.11,.07,.08,.11,.16,.11,.27v.48c.11-.28,.3-.5,.57-.68,.26-.18,.55-.27,.86-.27,.55,0,.98,.2,1.3,.61Zm-.88,2.78c.18-.26,.27-.64,.27-1.13,0-.43-.09-.77-.26-1-.17-.24-.42-.36-.73-.36-.2,0-.39,.06-.56,.18s-.31,.28-.41,.49c-.1,.21-.15,.43-.15,.68v1.01c.14,.17,.3,.3,.48,.39,.18,.09,.37,.14,.58,.14,.34,0,.6-.13,.78-.39Z"/>
    <path class="cls-1" d="M69.89,28.31v.31c0,.2-.12,.31-.35,.31h-1.46c-.23,0-.35-.1-.35-.31v-.31c0-.2,.12-.31,.35-.31h.2v-1.49c0-.47-.06-.8-.17-.99-.11-.19-.31-.29-.58-.29-.19,0-.38,.06-.55,.19-.18,.13-.32,.29-.42,.5s-.16,.42-.16,.64v1.45h.19c.23,0,.35,.1,.35,.31v.31c0,.2-.12,.31-.35,.31h-1.46c-.23,0-.35-.1-.35-.31v-.31c0-.2,.12-.31,.35-.31h.2v-4.83h-.2c-.23,0-.35-.1-.35-.31v-.31c0-.2,.12-.31,.35-.31h.88c.11,0,.2,.04,.27,.11,.08,.08,.11,.16,.11,.27v2.72c.13-.3,.32-.55,.58-.74,.26-.19,.54-.29,.84-.29,.5,0,.88,.16,1.14,.49,.26,.33,.39,.8,.39,1.42v1.76h.19c.23,0,.35,.1,.35,.31Z"/>
    <path class="cls-1" d="M74.11,24.53c.14,.14,.22,.32,.22,.55,0,.2-.06,.36-.19,.5-.13,.13-.29,.2-.49,.2-.17,0-.31-.05-.42-.15-.11-.1-.18-.23-.21-.39-.23,.05-.43,.22-.59,.49-.16,.27-.24,.57-.24,.91v1.36h.37c.23,0,.35,.1,.35,.31v.31c0,.2-.12,.31-.35,.31h-1.64c-.23,0-.35-.1-.35-.31v-.31c0-.2,.12-.31,.35-.31h.2v-2.67h-.2c-.23,0-.35-.1-.35-.31v-.31c0-.2,.12-.31,.35-.31h.88c.11,0,.2,.04,.27,.11,.08,.08,.11,.16,.11,.27v.68c.11-.35,.28-.63,.52-.84,.24-.21,.51-.31,.8-.31,.26,0,.47,.07,.61,.21Z"/>
    <path class="cls-1" d="M75.43,28.39c-.39-.41-.59-.97-.59-1.68,0-.48,.09-.9,.28-1.26,.18-.36,.44-.64,.78-.83,.34-.2,.73-.29,1.19-.29,.68,0,1.21,.2,1.6,.61,.39,.41,.58,.97,.58,1.67,0,.48-.09,.9-.27,1.26-.18,.36-.44,.64-.78,.84-.34,.2-.73,.29-1.18,.29-.68,0-1.21-.21-1.6-.62Zm2.45-.67c.2-.25,.29-.62,.29-1.1s-.09-.8-.28-1.04c-.19-.24-.46-.36-.82-.36s-.64,.13-.84,.39c-.2,.26-.3,.62-.3,1.09s.1,.8,.29,1.04,.46,.36,.82,.36,.65-.13,.84-.38Z"/>
    <path class="cls-1" d="M79.97,28.61v-.31c0-.2,.12-.31,.35-.31h.2v-4.83h-.2c-.23,0-.35-.1-.35-.31v-.31c0-.2,.12-.31,.35-.31h.88c.11,0,.2,.04,.27,.11,.08,.08,.11,.16,.11,.27v5.37h.19c.23,0,.35,.1,.35,.31v.31c0,.2-.12,.31-.35,.31h-1.46c-.23,0-.35-.1-.35-.31Z"/>
    <path class="cls-1" d="M83.42,28.39c-.39-.41-.58-.97-.58-1.68,0-.48,.09-.9,.27-1.26,.18-.36,.44-.64,.78-.83,.34-.2,.73-.29,1.19-.29,.68,0,1.21,.2,1.6,.61,.39,.41,.58,.97,.58,1.67,0,.48-.09,.9-.28,1.26-.18,.36-.44,.64-.78,.84-.34,.2-.73,.29-1.18,.29-.68,0-1.21-.21-1.6-.62Zm2.45-.67c.2-.25,.29-.62,.29-1.1s-.09-.8-.28-1.04c-.19-.24-.46-.36-.82-.36s-.64,.13-.84,.39c-.2,.26-.3,.62-.3,1.09s.1,.8,.29,1.04c.19,.24,.47,.36,.82,.36s.65-.13,.84-.38Z"/>
    <path class="cls-1" d="M92.94,24.72v.31c0,.2-.12,.31-.35,.31h-.19v3.32c0,.79-.19,1.39-.58,1.81-.38,.41-.94,.62-1.67,.62-.35,0-.66-.05-.93-.14-.27-.09-.48-.22-.63-.39-.15-.17-.23-.36-.23-.57,0-.19,.06-.34,.17-.45,.11-.11,.26-.17,.45-.17,.17,0,.32,.06,.43,.18s.17,.26,.17,.43c0,.05,0,.09,0,.12,.13,.07,.31,.1,.54,.1,.41,0,.71-.12,.91-.35,.2-.23,.3-.6,.3-1.09v-.68c-.11,.28-.3,.5-.57,.68-.26,.18-.55,.27-.86,.27-.36,0-.67-.09-.94-.28-.27-.19-.47-.45-.62-.79-.15-.34-.22-.74-.22-1.19,0-.76,.18-1.36,.53-1.78,.35-.43,.84-.64,1.47-.64,.26,0,.5,.06,.73,.18,.23,.12,.42,.3,.58,.54l.06-.34c.02-.1,.06-.18,.12-.22,.05-.04,.13-.07,.22-.07h.75c.23,0,.35,.1,.35,.31Zm-2.17,3.21c.17-.12,.31-.28,.4-.49,.1-.21,.15-.43,.15-.68v-1.01c-.14-.17-.3-.3-.48-.39-.18-.09-.37-.14-.58-.14-.34,0-.6,.13-.79,.39-.18,.26-.27,.64-.27,1.13,0,.43,.09,.77,.26,1,.17,.24,.42,.36,.74,.36,.2,0,.39-.06,.56-.18Z"/>
    <path class="cls-1" d="M98.62,28.31v.31c0,.2-.12,.31-.35,.31h-.88c-.11,0-.2-.04-.27-.11-.08-.08-.11-.16-.11-.27v-.56c-.12,.3-.31,.55-.56,.74-.25,.19-.53,.29-.81,.29-.49,0-.86-.16-1.11-.49-.25-.32-.37-.8-.37-1.42v-1.76h-.19c-.23,0-.35-.1-.35-.31v-.31c0-.2,.12-.31,.35-.31h.88c.11,0,.2,.04,.27,.11,.07,.07,.11,.16,.11,.27v2.03c0,.48,.05,.81,.15,1,.1,.19,.28,.28,.55,.28,.19,0,.37-.06,.54-.18s.3-.29,.4-.49c.1-.2,.15-.42,.15-.65v-1.45h-.19c-.23,0-.35-.1-.35-.31v-.31c0-.2,.12-.31,.35-.31h.89c.11,0,.2,.04,.27,.11,.07,.07,.1,.16,.1,.27v3.21h.2c.23,0,.35,.1,.35,.31Z"/>
    <path class="cls-1" d="M103.43,26.89h-3.02c.04,.38,.17,.68,.37,.89,.2,.22,.47,.32,.8,.32,.22,0,.4-.03,.53-.1,.13-.07,.26-.19,.38-.36,.11-.13,.23-.19,.35-.19s.22,.03,.31,.1,.13,.16,.13,.27c0,.13-.04,.26-.13,.4-.36,.52-.89,.77-1.6,.77-.45,0-.84-.1-1.18-.3s-.59-.48-.77-.83c-.18-.36-.27-.77-.27-1.24s.09-.88,.27-1.23c.18-.35,.43-.62,.76-.81s.71-.28,1.14-.28c.38,0,.72,.08,1.01,.24s.53,.4,.7,.72c.17,.32,.26,.7,.26,1.15,0,.07,0,.22-.03,.45Zm-2.67-1.47c-.17,.17-.29,.43-.33,.77h1.94v-.05c0-.32-.08-.57-.24-.73s-.38-.24-.67-.24-.52,.09-.69,.26Z"/>
    <path class="cls-1" d="M107.15,26.35c-.07-.07-.1-.15-.1-.26v-.19c0-.11,.03-.2,.1-.27,.07-.07,.16-.1,.28-.1h4.78c.12,0,.21,.03,.28,.1,.07,.07,.1,.16,.1,.27v.19c0,.11-.04,.2-.1,.26-.07,.07-.16,.1-.28,.1h-4.78c-.12,0-.21-.03-.28-.1Z"/>
    <path class="cls-1" d="M121.11,27.13c.1,.08,.14,.17,.14,.29,0,.07-.01,.15-.04,.24-.03,.09-.07,.18-.12,.27-.23,.37-.51,.64-.85,.82-.34,.18-.75,.27-1.22,.27-.55,0-1.03-.13-1.44-.4s-.72-.65-.94-1.14c-.22-.49-.32-1.07-.32-1.73,0-1.01,.24-1.8,.72-2.36s1.14-.85,2-.85c.41,0,.78,.07,1.12,.21,.34,.14,.6,.33,.8,.57,.2,.24,.3,.51,.3,.8,0,.23-.06,.41-.19,.54-.13,.13-.29,.2-.5,.2s-.36-.06-.48-.17c-.12-.11-.18-.26-.18-.44,0-.17,.05-.31,.14-.42-.22-.25-.55-.37-1-.37-.55,0-.96,.19-1.22,.56-.26,.38-.4,.94-.4,1.71s.14,1.37,.41,1.77c.28,.4,.69,.6,1.24,.6,.29,0,.53-.06,.74-.18s.37-.31,.5-.56c.07-.13,.13-.22,.19-.27,.06-.04,.14-.07,.25-.07,.13,0,.25,.04,.34,.12Z"/>
    <path class="cls-1" d="M122.76,28.39c-.39-.41-.59-.97-.59-1.68,0-.48,.09-.9,.28-1.26,.18-.36,.44-.64,.78-.83,.34-.2,.73-.29,1.19-.29,.68,0,1.21,.2,1.6,.61,.39,.41,.58,.97,.58,1.67,0,.48-.09,.9-.27,1.26-.18,.36-.44,.64-.78,.84-.34,.2-.73,.29-1.18,.29-.68,0-1.21-.21-1.6-.62Zm2.45-.67c.2-.25,.29-.62,.29-1.1s-.09-.8-.28-1.04c-.19-.24-.46-.36-.82-.36s-.64,.13-.84,.39c-.2,.26-.3,.62-.3,1.09s.1,.8,.29,1.04,.46,.36,.82,.36,.65-.13,.84-.38Z"/>
    <path class="cls-1" d="M131.8,28.31v.31c0,.2-.12,.31-.35,.31h-.88c-.11,0-.2-.04-.27-.11-.07-.08-.11-.16-.11-.27v-.5c-.11,.28-.3,.51-.56,.7-.26,.18-.54,.27-.82,.27-.42,0-.76-.12-1.01-.37-.26-.25-.38-.57-.38-.96,0-.44,.15-.77,.44-.99s.72-.34,1.29-.34c.35,0,.7,.04,1.05,.12v-.37c0-.61-.3-.91-.9-.91-.19,0-.35,.03-.46,.1,0,.02,0,.04,0,.08,0,.17-.06,.32-.17,.43-.11,.11-.26,.17-.42,.17-.19,0-.34-.06-.45-.17-.11-.11-.17-.26-.17-.45,0-.31,.15-.55,.46-.74,.31-.19,.71-.28,1.21-.28,.64,0,1.13,.17,1.46,.5,.33,.33,.5,.8,.5,1.4v1.78h.19c.23,0,.35,.1,.35,.31Zm-1.95-.45c.21-.23,.32-.5,.34-.82-.23-.04-.53-.05-.9-.05-.28,0-.49,.05-.62,.15-.13,.1-.2,.26-.2,.48,0,.18,.06,.32,.18,.43,.12,.1,.27,.16,.46,.16,.28,0,.53-.11,.74-.34Z"/>
    <path class="cls-1" d="M136.31,27.56c.08,.07,.13,.16,.13,.27,0,.13-.04,.26-.13,.4-.36,.52-.89,.77-1.6,.77-.45,0-.84-.1-1.18-.3-.34-.2-.59-.48-.77-.83-.18-.36-.27-.77-.27-1.24s.09-.88,.28-1.23c.18-.35,.44-.62,.77-.81s.71-.28,1.14-.28c.35,0,.66,.06,.94,.18,.28,.12,.5,.29,.66,.51,.16,.22,.24,.47,.24,.74,0,.2-.06,.37-.19,.5-.13,.13-.29,.19-.5,.19-.19,0-.35-.06-.47-.17-.12-.11-.18-.26-.18-.45,0-.14,.04-.26,.11-.37-.14-.16-.35-.23-.64-.23-.34,0-.6,.12-.78,.36-.18,.24-.27,.59-.27,1.04s.1,.81,.31,1.08,.5,.4,.87,.4c.22,0,.4-.03,.53-.1,.13-.07,.26-.19,.38-.36,.11-.13,.23-.19,.35-.19s.22,.03,.31,.1Z"/>
    <path class="cls-1" d="M142.29,28.31v.31c0,.2-.12,.31-.35,.31h-1.46c-.23,0-.35-.1-.35-.31v-.31c0-.2,.12-.31,.35-.31h.2v-1.49c0-.47-.06-.8-.17-.99-.11-.19-.31-.29-.58-.29-.19,0-.38,.06-.55,.19-.18,.13-.32,.29-.42,.5-.11,.2-.16,.42-.16,.64v1.45h.19c.23,0,.35,.1,.35,.31v.31c0,.2-.12,.31-.35,.31h-1.46c-.23,0-.35-.1-.35-.31v-.31c0-.2,.12-.31,.35-.31h.2v-4.83h-.2c-.23,0-.35-.1-.35-.31v-.31c0-.2,.12-.31,.35-.31h.88c.11,0,.2,.04,.27,.11s.11,.16,.11,.27v2.72c.13-.3,.32-.55,.58-.74,.26-.19,.54-.29,.84-.29,.5,0,.88,.16,1.14,.49s.39,.8,.39,1.42v1.76h.19c.23,0,.35,.1,.35,.31Z"/>
  </g>
  <g>
    <path class="cls-1" d="M57.58,15.07v3.91h.13c.13,0,.24,.03,.32,.1,.08,.07,.12,.17,.12,.31v.4c0,.14-.04,.24-.12,.3s-.18,.09-.32,.09h-1.71c-.13,0-.23-.03-.31-.09s-.12-.16-.12-.3v-.4c0-.14,.04-.24,.12-.31,.08-.07,.18-.1,.31-.1h.14v-3.77l-1.18,2.91c-.08,.18-.2,.27-.37,.27h-.45c-.18,0-.3-.09-.37-.27l-1.19-2.94v3.8h.14c.13,0,.23,.03,.31,.1,.08,.07,.12,.17,.12,.31v.4c0,.14-.04,.24-.12,.3-.08,.06-.18,.09-.31,.09h-1.49c-.13,0-.24-.03-.31-.09s-.12-.16-.12-.3v-.4c0-.14,.04-.24,.12-.31,.08-.07,.18-.1,.31-.1h.14v-3.91h-.14c-.13,0-.24-.03-.31-.1-.08-.07-.12-.17-.12-.31v-.4c0-.14,.04-.24,.12-.3s.18-.09,.31-.09h1.99c.19,0,.32,.09,.39,.27l.87,2.21,.88-2.21c.07-.18,.2-.27,.39-.27h1.95c.13,0,.24,.03,.32,.09s.12,.16,.12,.3v.4c0,.14-.04,.24-.12,.31-.08,.07-.18,.1-.32,.1h-.13Z"/>
    <path class="cls-1" d="M63.38,19.07c.08,.07,.12,.17,.12,.31v.4c0,.14-.04,.24-.12,.3s-.18,.09-.31,.09h-1.12c-.13,0-.23-.04-.32-.13s-.13-.19-.13-.32v-.39c-.12,.28-.3,.5-.53,.67-.23,.17-.48,.26-.74,.26-.41,0-.74-.12-.99-.37-.25-.25-.38-.57-.38-.97,0-.47,.15-.81,.44-1.03,.29-.22,.75-.32,1.38-.32,.24,0,.51,.02,.82,.07v-.31c0-.21-.06-.38-.18-.5-.12-.12-.28-.18-.49-.18-.11,0-.21,.02-.3,.06-.03,.17-.11,.32-.25,.43-.13,.11-.29,.17-.48,.17-.22,0-.4-.06-.54-.19-.14-.13-.21-.3-.21-.5,0-.32,.16-.58,.49-.77s.75-.28,1.27-.28c.7,0,1.22,.17,1.58,.52s.53,.83,.53,1.46v1.41h.13c.13,0,.23,.03,.31,.1Zm-2.14-.09c.15-.18,.24-.39,.27-.64-.22-.02-.41-.04-.59-.04-.22,0-.38,.04-.47,.12-.09,.08-.14,.22-.14,.41,0,.12,.04,.22,.12,.3,.08,.08,.17,.12,.29,.12,.2,0,.38-.09,.54-.27Z"/>
    <path class="cls-1" d="M68.05,15.84c.16,.17,.24,.4,.24,.68,0,.26-.08,.47-.24,.63-.16,.17-.37,.25-.63,.25-.19,0-.35-.05-.48-.16s-.23-.25-.27-.43c-.17,.07-.32,.19-.43,.38-.11,.19-.17,.39-.17,.62v1.17h.3c.13,0,.23,.03,.31,.1,.08,.07,.12,.17,.12,.31v.4c0,.14-.04,.24-.12,.3s-.18,.09-.31,.09h-1.86c-.13,0-.23-.03-.31-.09s-.12-.16-.12-.3v-.4c0-.14,.04-.24,.12-.31,.08-.07,.18-.1,.31-.1h.14v-2.11h-.14c-.13,0-.23-.03-.31-.1-.08-.07-.12-.17-.12-.31v-.4c0-.14,.04-.24,.12-.3s.18-.09,.31-.09h1.12c.13,0,.23,.04,.31,.13s.13,.19,.13,.32v.55c.1-.33,.27-.59,.51-.79,.24-.2,.49-.3,.77-.3,.31,0,.54,.09,.7,.26Z"/>
    <path class="cls-1" d="M68.97,20.08c-.08-.06-.12-.16-.12-.3v-.4c0-.14,.04-.24,.12-.31,.08-.07,.18-.1,.31-.1h.14v-2.11h-.14c-.13,0-.23-.03-.31-.1-.08-.07-.12-.17-.12-.31v-.4c0-.14,.04-.24,.12-.3s.18-.09,.31-.09h1.12c.13,0,.23,.04,.31,.13s.13,.19,.13,.32v2.85h.14c.13,0,.24,.03,.31,.1,.08,.07,.12,.17,.12,.31v.4c0,.14-.04,.24-.12,.3s-.18,.09-.31,.09h-1.69c-.13,0-.23-.03-.31-.09Zm.36-5.31c-.17-.17-.26-.38-.26-.63s.09-.46,.26-.63c.17-.17,.38-.26,.63-.26s.46,.09,.63,.26c.17,.17,.26,.38,.26,.63s-.09,.46-.26,.63c-.17,.17-.38,.26-.63,.26s-.46-.09-.63-.26Z"/>
    <path class="cls-1" d="M76.2,18.23h-2.75c.05,.27,.15,.48,.32,.63,.16,.15,.37,.23,.63,.23,.16,0,.29-.02,.39-.07,.1-.04,.2-.12,.31-.22,.14-.13,.28-.19,.41-.19,.15,0,.28,.04,.38,.12s.16,.2,.16,.36c0,.17-.05,.33-.16,.47-.15,.2-.36,.37-.62,.5s-.58,.2-.95,.2c-.49,0-.91-.1-1.26-.29-.35-.19-.62-.47-.81-.83-.19-.36-.28-.77-.28-1.24s.09-.89,.28-1.24c.19-.35,.45-.62,.79-.8,.34-.19,.73-.28,1.17-.28,.37,0,.7,.08,1.01,.23,.31,.16,.55,.39,.73,.71,.18,.32,.27,.71,.27,1.17,0,.2-.01,.38-.04,.53Zm-2.75-.85h1.32s0-.09,0-.15c0-.19-.06-.33-.17-.43s-.26-.15-.45-.15c-.39,0-.63,.24-.72,.73Z"/>
    <path class="cls-1" d="M84.53,14.65c.53,.52,.8,1.25,.8,2.18,0,.65-.13,1.23-.38,1.74-.25,.5-.61,.9-1.06,1.18-.45,.28-.97,.42-1.55,.42h-2.29c-.13,0-.24-.03-.31-.09s-.12-.16-.12-.3v-.4c0-.14,.04-.24,.12-.31,.08-.07,.18-.1,.31-.1h.14v-3.91h-.14c-.13,0-.24-.03-.31-.1-.08-.07-.12-.17-.12-.31v-.4c0-.14,.04-.24,.12-.3s.18-.09,.31-.09h2.24c.96,0,1.71,.26,2.24,.78Zm-1.09,3.77c.28-.37,.41-.88,.41-1.54,0-.61-.13-1.07-.4-1.37-.27-.3-.67-.45-1.2-.45h-.62v3.91h.66c.49,0,.88-.18,1.15-.55Z"/>
    <path class="cls-1" d="M90.12,15.84c.16,.17,.24,.4,.24,.68,0,.26-.08,.47-.24,.63s-.37,.25-.63,.25c-.19,0-.35-.05-.48-.16s-.23-.25-.27-.43c-.17,.07-.32,.19-.43,.38-.11,.19-.17,.39-.17,.62v1.17h.3c.13,0,.23,.03,.31,.1,.08,.07,.12,.17,.12,.31v.4c0,.14-.04,.24-.12,.3s-.18,.09-.31,.09h-1.86c-.13,0-.23-.03-.31-.09s-.12-.16-.12-.3v-.4c0-.14,.04-.24,.12-.31,.08-.07,.18-.1,.31-.1h.14v-2.11h-.14c-.13,0-.23-.03-.31-.1-.08-.07-.12-.17-.12-.31v-.4c0-.14,.04-.24,.12-.3s.18-.09,.31-.09h1.12c.13,0,.23,.04,.31,.13s.13,.19,.13,.32v.55c.1-.33,.27-.59,.51-.79,.24-.2,.49-.3,.77-.3,.31,0,.54,.09,.7,.26Z"/>
    <path class="cls-1" d="M96.15,19.07c.08,.07,.12,.17,.12,.31v.4c0,.14-.04,.24-.12,.3s-.18,.09-.32,.09h-1.11c-.13,0-.24-.04-.32-.13s-.13-.19-.13-.32v-.41c-.12,.28-.3,.51-.53,.68-.23,.17-.48,.26-.73,.26-.49,0-.86-.16-1.13-.47-.27-.31-.4-.75-.4-1.31v-1.61h-.14c-.13,0-.23-.03-.31-.1-.08-.07-.12-.17-.12-.31v-.4c0-.14,.04-.24,.12-.3s.18-.09,.31-.09h1.12c.13,0,.23,.04,.32,.13s.13,.19,.13,.32v1.93c0,.4,.04,.67,.11,.82,.08,.15,.21,.23,.41,.23,.23,0,.43-.1,.6-.31,.17-.2,.25-.45,.25-.73v-1.19h-.13c-.13,0-.24-.03-.32-.1-.08-.07-.12-.17-.12-.31v-.4c0-.14,.04-.24,.12-.3s.18-.09,.32-.09h1.12c.13,0,.23,.04,.32,.13s.13,.19,.13,.32v2.85h.13c.13,0,.24,.03,.32,.1Z"/>
    <path class="cls-1" d="M104.91,19.07c.08,.07,.12,.17,.12,.31v.4c0,.14-.04,.24-.12,.3s-.18,.09-.31,.09h-1.62c-.13,0-.23-.03-.31-.09s-.12-.16-.12-.3v-.4c0-.14,.04-.24,.12-.31,.08-.07,.18-.1,.31-.1h.06v-1.18c0-.4-.04-.67-.11-.82-.08-.15-.21-.23-.42-.23-.23,0-.43,.1-.6,.31-.17,.2-.25,.45-.25,.73v1.19h.05c.13,0,.24,.03,.31,.1,.08,.07,.12,.17,.12,.31v.4c0,.14-.04,.24-.12,.3s-.18,.09-.31,.09h-1.54c-.13,0-.24-.03-.32-.09-.08-.06-.12-.16-.12-.3v-.4c0-.14,.04-.24,.12-.31,.08-.07,.18-.1,.32-.1h.05v-1.18c0-.4-.04-.67-.11-.82-.08-.15-.21-.23-.41-.23-.23,0-.44,.1-.6,.31-.17,.2-.25,.45-.25,.73v1.19h.06c.13,0,.23,.03,.31,.1,.08,.07,.12,.17,.12,.31v.4c0,.14-.04,.24-.12,.3s-.18,.09-.31,.09h-1.62c-.13,0-.23-.03-.31-.09-.08-.06-.12-.16-.12-.3v-.4c0-.14,.04-.24,.12-.31,.08-.07,.18-.1,.31-.1h.13v-2.11h-.13c-.13,0-.23-.03-.31-.1-.08-.07-.12-.17-.12-.31v-.4c0-.14,.04-.24,.12-.3,.08-.06,.18-.09,.31-.09h1.12c.13,0,.23,.04,.32,.13s.13,.19,.13,.32v.4c.12-.28,.3-.51,.53-.68,.23-.17,.48-.26,.74-.26,.36,0,.66,.09,.91,.27,.25,.18,.42,.43,.52,.75,.17-.33,.37-.58,.62-.76,.24-.17,.49-.26,.75-.26,.49,0,.87,.16,1.14,.47,.27,.31,.4,.75,.4,1.31v1.61h.13c.13,0,.23,.03,.31,.1Z"/>
    <path class="cls-1" d="M109.81,18.23h-2.75c.05,.27,.15,.48,.32,.63,.16,.15,.37,.23,.63,.23,.16,0,.29-.02,.39-.07,.1-.04,.2-.12,.31-.22,.14-.13,.28-.19,.41-.19,.15,0,.28,.04,.38,.12s.16,.2,.16,.36c0,.17-.05,.33-.16,.47-.15,.2-.36,.37-.62,.5s-.58,.2-.95,.2c-.49,0-.91-.1-1.26-.29-.35-.19-.62-.47-.81-.83-.19-.36-.28-.77-.28-1.24s.09-.89,.28-1.24c.19-.35,.45-.62,.79-.8,.34-.19,.73-.28,1.17-.28,.37,0,.7,.08,1.01,.23,.31,.16,.55,.39,.73,.71,.18,.32,.27,.71,.27,1.17,0,.2-.01,.38-.04,.53Zm-2.75-.85h1.32s0-.09,0-.15c0-.19-.06-.33-.17-.43s-.26-.15-.45-.15c-.39,0-.63,.24-.72,.73Z"/>
    <path class="cls-1" d="M114.58,18.35c.07,.08,.1,.18,.1,.32v1.05c0,.13-.04,.24-.13,.32s-.19,.13-.32,.13h-3.17c-.13,0-.24-.04-.32-.13s-.13-.19-.13-.31v-.18c0-.11,.02-.2,.06-.28s.11-.18,.2-.28l1.91-2.23h-.95v.24c0,.13-.03,.24-.09,.32-.06,.08-.16,.12-.3,.12h-.4c-.26,0-.4-.14-.4-.43v-.87c0-.13,.04-.24,.13-.32,.08-.08,.19-.13,.31-.13h3.11c.13,0,.23,.04,.32,.13,.08,.08,.13,.19,.13,.31v.18c0,.1-.02,.2-.06,.28s-.11,.18-.2,.28l-1.9,2.23h1.01v-.42c0-.13,.03-.24,.09-.32,.06-.08,.16-.12,.3-.12h.4c.14,0,.24,.04,.31,.12Z"/>
  </g>
</svg>