<?xml version="1.0" encoding="UTF-8"?>
<svg id="Calque_1" data-name="Calque 1" xmlns="http://www.w3.org/2000/svg" viewBox="0 0 168.21 125.84">
  <defs>
    <style>
      .cls-1 {
        fill: #3a8233;
      }
    </style>
  </defs>
  <path class="cls-1" d="M25.65,121.26c-1.84-21.05-6.3-54.35-10.29-75.07-1.33-6.92-4.41-23.66,3.01-28.65,6.6-4.44,8.87,6.03,11.2,10.72,2.36,4.77,4.81,9.57,8.06,13.81,5.66,7.36,14.78,13.57,24.33,9.61,8.77-3.63,12.49-14.2,16.39-22.02,.99-1.99,1.99-3.96,3.07-5.9,1.3-2.34-.09-2.14,.21-1.92,4.34,3.22,5.36,15.01,6.23,19.93,2.52,14.34,2.33,28.76,3.82,43.16,1.72,16.57,16.65,23.23,32.24,22.17,18.17-1.24,32.64-13.68,39.38-30.18,8.04-19.67,6.72-44.92-7.98-61.26C142.13,.96,120.65-4.1,102.49,3.52c-7.78,3.27,3.43,10.19,8.69,7.98,31.18-13.09,46.59,25.6,42.07,50.03-2.09,11.32-7.46,22.86-16.8,29.98-12.19,9.28-30.08,8.7-31.08-9.59-.7-12.91-1.33-25.83-3.45-38.6-1.49-8.98-3.3-21.66-11.06-27.7-17.36-13.51-24.75,10.25-31.44,20.98-3.29,5.28-4.11,7.74-9.01,3.22-6.98-6.44-8.3-17.72-14.02-25.11C30.55,7.13,20.01,2.8,11.08,7.8-1.61,14.9-1,32.7,1.32,44.94c4,21.13,8.65,54.76,10.53,76.22,.49,5.59,14.4,6.82,13.81,.1h0Z"/>
</svg>