<svg id="Calque_1" data-name="Calque 1" xmlns="http://www.w3.org/2000/svg" viewBox="0 0 172.37 126.15"><defs><style>.cls-1{fill:#29695a;}</style></defs><path class="cls-1" d="M154.26,204.47c-1.85-21.05-6.3-54.35-10.29-75.07-1.34-6.93-4.42-23.66,3-28.65,6.6-4.43,8.87,6,11.2,10.72a82.08,82.08,0,0,0,8.06,13.81c5.66,7.37,14.78,13.57,24.33,9.61,8.78-3.63,12.49-14.2,16.39-22,1-2,2-4,3.07-5.9,1.3-2.34-.09-2.15.21-1.92,4.34,3.22,5.37,15,6.23,19.92,2.52,14.34,2.33,28.76,3.82,43.16,1.73,16.58,16.65,23.23,32.25,22.17,18.16-1.23,32.64-13.68,39.38-30.18,8-19.67,6.72-44.92-8-61.26-13.21-14.68-34.68-19.74-52.84-12.12-7.78,3.27,3.43,10.19,8.69,8,31.17-13.08,46.59,25.6,42.07,50-2.1,11.33-7.46,22.87-16.8,30C252.87,184,235,183.43,234,165.14c-.7-12.91-1.33-25.83-3.45-38.6-1.49-9-3.3-21.66-11.06-27.7-17.36-13.51-24.74,10.25-31.43,21-3.3,5.29-4.11,7.75-9,3.22-7-6.43-8.3-17.72-14-25.11-5.85-7.57-16.4-11.9-25.32-6.9-12.69,7.1-12.08,24.9-9.77,37.14,4,21.12,8.65,54.75,10.53,76.21.49,5.59,14.4,6.82,13.81.1Z" transform="translate(-128.6 -83.22)"/><path class="cls-1" d="M176.48,197.53v9.3h.36a1,1,0,0,1,.64.19.71.71,0,0,1,.24.59v.78a.72.72,0,0,1-.24.59,1,1,0,0,1-.64.19h-3.51c-.57,0-.86-.26-.86-.78v-.78c0-.52.29-.78.86-.78h.36V198l-3,6.7a.75.75,0,0,1-.74.54h-.83a.75.75,0,0,1-.74-.54l-3-6.7v8.82h.36c.57,0,.86.26.86.78v.78c0,.52-.29.78-.86.78h-3.11A1,1,0,0,1,162,209a.72.72,0,0,1-.24-.59v-.78A.71.71,0,0,1,162,207a1,1,0,0,1,.64-.19H163v-9.3h-.36a1,1,0,0,1-.64-.19.71.71,0,0,1-.24-.59V196a.71.71,0,0,1,.24-.59,1,1,0,0,1,.62-.19h3.83a.76.76,0,0,1,.78.54l2.53,5.75,2.52-5.75a.79.79,0,0,1,.78-.54h3.75a1,1,0,0,1,.64.19.71.71,0,0,1,.24.59v.78a.71.71,0,0,1-.24.59,1,1,0,0,1-.64.19Z" transform="translate(-128.6 -83.22)"/><path class="cls-1" d="M189.22,207a.71.71,0,0,1,.24.59v.78a.72.72,0,0,1-.24.59,1,1,0,0,1-.62.19h-2.22a.87.87,0,0,1-.64-.27.89.89,0,0,1-.27-.65v-1a3.62,3.62,0,0,1-1.21,1.5,3,3,0,0,1-1.73.58,3.07,3.07,0,0,1-2.22-.82,2.86,2.86,0,0,1-.85-2.16,2.58,2.58,0,0,1,1-2.24,4.88,4.88,0,0,1,2.95-.73,11.08,11.08,0,0,1,2.08.22v-.74a1.82,1.82,0,0,0-.45-1.32,1.71,1.71,0,0,0-1.29-.46,1.41,1.41,0,0,0-.8.18,1.54,1.54,0,0,1-.46,1,1.43,1.43,0,0,1-1,.41,1.5,1.5,0,0,1-1.09-.41,1.42,1.42,0,0,1-.42-1.07A1.88,1.88,0,0,1,181,199.6a5.48,5.48,0,0,1,2.76-.62,4.57,4.57,0,0,1,3.35,1.13,4.26,4.26,0,0,1,1.14,3.17v3.55h.38A1,1,0,0,1,189.22,207Zm-4.44-.36a2.71,2.71,0,0,0,.69-1.61,9.58,9.58,0,0,0-1.66-.12,2,2,0,0,0-1.22.31,1.22,1.22,0,0,0-.38,1,1,1,0,0,0,.32.8,1.17,1.17,0,0,0,.84.3A1.86,1.86,0,0,0,184.78,206.66Z" transform="translate(-128.6 -83.22)"/><path class="cls-1" d="M199.18,199.49a1.89,1.89,0,0,1,.5,1.37,1.74,1.74,0,0,1-.48,1.26,1.65,1.65,0,0,1-1.24.5,1.52,1.52,0,0,1-1-.34,1.57,1.57,0,0,1-.52-.92,2.08,2.08,0,0,0-1.14,1,3.13,3.13,0,0,0-.46,1.69v2.81h.74c.57,0,.86.26.86.78v.78c0,.52-.29.78-.86.78h-3.88a1,1,0,0,1-.61-.19.72.72,0,0,1-.24-.59v-.78a.71.71,0,0,1,.24-.59.93.93,0,0,1,.61-.19h.38v-5.31h-.38a.93.93,0,0,1-.61-.19.71.71,0,0,1-.24-.59V200c0-.52.28-.77.85-.77h2.22a.89.89,0,0,1,.66.25.93.93,0,0,1,.26.66v1.42a3.74,3.74,0,0,1,1.13-1.86,2.63,2.63,0,0,1,1.76-.68A2,2,0,0,1,199.18,199.49Z" transform="translate(-128.6 -83.22)"/><path class="cls-1" d="M201.24,209a.72.72,0,0,1-.24-.59v-.78a.71.71,0,0,1,.24-.59.94.94,0,0,1,.62-.19h.37v-5.31h-.37a.94.94,0,0,1-.62-.19.71.71,0,0,1-.24-.59V200c0-.52.28-.77.86-.77h2.21a.89.89,0,0,1,.66.25.93.93,0,0,1,.26.66v6.73h.36a1,1,0,0,1,.64.19.71.71,0,0,1,.24.59v.78a.72.72,0,0,1-.24.59,1.06,1.06,0,0,1-.64.19h-3.49A1,1,0,0,1,201.24,209Zm.75-11.9a1.84,1.84,0,0,1,0-2.54,1.7,1.7,0,0,1,1.26-.51,1.78,1.78,0,1,1,0,3.56A1.7,1.7,0,0,1,202,197.08Z" transform="translate(-128.6 -83.22)"/><path class="cls-1" d="M216.89,204.75h-6.41a3,3,0,0,0,.76,1.7,2.1,2.1,0,0,0,1.58.62,2.29,2.29,0,0,0,1-.19,2.55,2.55,0,0,0,.77-.63,1.17,1.17,0,0,1,.86-.44,1.19,1.19,0,0,1,.76.26.88.88,0,0,1,.32.7,1.63,1.63,0,0,1-.34,1,4,4,0,0,1-1.41,1.19,4.52,4.52,0,0,1-2.1.45,5.36,5.36,0,0,1-2.71-.66,4.42,4.42,0,0,1-1.76-1.85,6,6,0,0,1-.61-2.74,5.89,5.89,0,0,1,.61-2.74A4.34,4.34,0,0,1,210,199.6a5.2,5.2,0,0,1,2.57-.62,4.71,4.71,0,0,1,2.23.53,4,4,0,0,1,1.6,1.59,5.18,5.18,0,0,1,.6,2.58C217,203.88,216.93,204.24,216.89,204.75ZM210.52,203h3.61v-.22a1.74,1.74,0,0,0-.45-1.3,1.69,1.69,0,0,0-1.22-.44C211.36,201.08,210.72,201.73,210.52,203Z" transform="translate(-128.6 -83.22)"/><path class="cls-1" d="M235.19,196.91a6.46,6.46,0,0,1,1.76,4.87,8.45,8.45,0,0,1-.83,3.85,6.18,6.18,0,0,1-2.34,2.61,6.52,6.52,0,0,1-3.48.93h-4.91a1.06,1.06,0,0,1-.64-.19.72.72,0,0,1-.24-.59v-.78a.71.71,0,0,1,.24-.59,1,1,0,0,1,.64-.19h.36v-9.3h-.36a1.06,1.06,0,0,1-.64-.19.71.71,0,0,1-.24-.59V196a.71.71,0,0,1,.24-.59,1,1,0,0,1,.62-.19h4.87A6.76,6.76,0,0,1,235.19,196.91Zm-2.13,8.62a5.66,5.66,0,0,0,1-3.63,4.78,4.78,0,0,0-1-3.28,3.8,3.8,0,0,0-3-1.09h-1.59v9.3h1.61A3.49,3.49,0,0,0,233.06,205.53Z" transform="translate(-128.6 -83.22)"/><path class="cls-1" d="M247.27,199.49a1.89,1.89,0,0,1,.5,1.37,1.74,1.74,0,0,1-.48,1.26,1.65,1.65,0,0,1-1.24.5,1.5,1.5,0,0,1-1-.34,1.53,1.53,0,0,1-.53-.92,2.12,2.12,0,0,0-1.14,1,3.13,3.13,0,0,0-.46,1.69v2.81h.74c.57,0,.86.26.86.78v.78c0,.52-.29.78-.86.78h-3.87a1,1,0,0,1-.62-.19.72.72,0,0,1-.24-.59v-.78a.71.71,0,0,1,.24-.59.94.94,0,0,1,.62-.19h.38v-5.31h-.38a.94.94,0,0,1-.62-.19.71.71,0,0,1-.24-.59V200c0-.52.28-.77.86-.77H242a.89.89,0,0,1,.66.25.93.93,0,0,1,.26.66v1.42a3.81,3.81,0,0,1,1.13-1.86,2.63,2.63,0,0,1,1.76-.68A2,2,0,0,1,247.27,199.49Z" transform="translate(-128.6 -83.22)"/><path class="cls-1" d="M260.29,207a.71.71,0,0,1,.24.59v.78a.72.72,0,0,1-.24.59,1,1,0,0,1-.62.19h-2.22a.92.92,0,0,1-.92-.92v-1.08a3.77,3.77,0,0,1-1.21,1.58,2.84,2.84,0,0,1-1.72.62,3.06,3.06,0,0,1-2.5-1.06,4.74,4.74,0,0,1-.85-3v-3.75h-.36c-.58,0-.86-.26-.86-.78V200c0-.52.28-.77.86-.77h2.21a.89.89,0,0,1,.66.25.93.93,0,0,1,.26.66v4.39a4.88,4.88,0,0,0,.29,2,1.1,1.1,0,0,0,1.07.56,1.84,1.84,0,0,0,1.08-.36,2.43,2.43,0,0,0,.78-1,2.82,2.82,0,0,0,.29-1.28v-2.94h-.35a1,1,0,0,1-.64-.19.71.71,0,0,1-.24-.59V200a.72.72,0,0,1,.24-.59,1,1,0,0,1,.64-.18h2.21a.87.87,0,0,1,.64.25.93.93,0,0,1,.26.66v6.73h.38A1,1,0,0,1,260.29,207Z" transform="translate(-128.6 -83.22)"/><path class="cls-1" d="M279.41,207a.71.71,0,0,1,.24.59v.78a.72.72,0,0,1-.24.59,1,1,0,0,1-.64.19h-3.35c-.57,0-.86-.26-.86-.78v-.78c0-.52.29-.78.86-.78h.24v-3a4.91,4.91,0,0,0-.29-2,1.08,1.08,0,0,0-1.05-.56,1.81,1.81,0,0,0-1.06.36,2.43,2.43,0,0,0-.78,1,2.87,2.87,0,0,0-.29,1.29v2.93h.24a.91.91,0,0,1,.61.19.71.71,0,0,1,.24.59v.78a.72.72,0,0,1-.24.59,1,1,0,0,1-.61.19h-3.24c-.57,0-.86-.26-.86-.78v-.78c0-.52.29-.78.86-.78h.24v-3a4.91,4.91,0,0,0-.29-2,1.08,1.08,0,0,0-1.05-.56,1.76,1.76,0,0,0-1,.36,2.37,2.37,0,0,0-.79,1,2.87,2.87,0,0,0-.29,1.29v2.93h.24a1,1,0,0,1,.62.19.71.71,0,0,1,.24.59v.78a.72.72,0,0,1-.24.59,1,1,0,0,1-.62.19h-3.38a1,1,0,0,1-.62-.19.72.72,0,0,1-.24-.59v-.78a.71.71,0,0,1,.24-.59,1,1,0,0,1,.62-.19h.38v-5.31h-.38a1,1,0,0,1-.62-.19.71.71,0,0,1-.24-.59V200c0-.52.29-.77.86-.77H265a.91.91,0,0,1,.66.25.93.93,0,0,1,.26.66v1.08a3.66,3.66,0,0,1,1.2-1.59,2.8,2.8,0,0,1,1.71-.61,3,3,0,0,1,3.1,2.34,4.91,4.91,0,0,1,1.4-1.73,2.94,2.94,0,0,1,1.73-.61,3,3,0,0,1,2.47,1.05,4.8,4.8,0,0,1,.84,3.05v3.75h.36A1,1,0,0,1,279.41,207Z" transform="translate(-128.6 -83.22)"/><path class="cls-1" d="M290.25,204.75h-6.41a3,3,0,0,0,.76,1.7,2.12,2.12,0,0,0,1.58.62,2.31,2.31,0,0,0,1-.19,2.67,2.67,0,0,0,.77-.63,1.12,1.12,0,0,1,1.61-.18.85.85,0,0,1,.32.7,1.63,1.63,0,0,1-.34,1,4,4,0,0,1-1.4,1.19,4.54,4.54,0,0,1-2.11.45,5.36,5.36,0,0,1-2.71-.66,4.4,4.4,0,0,1-1.75-1.85,5.88,5.88,0,0,1-.61-2.74,5.77,5.77,0,0,1,.61-2.74,4.32,4.32,0,0,1,1.71-1.78,5.23,5.23,0,0,1,2.57-.62,4.75,4.75,0,0,1,2.24.53,4.05,4.05,0,0,1,1.59,1.59,5.18,5.18,0,0,1,.6,2.58C290.31,203.88,290.29,204.24,290.25,204.75ZM283.88,203h3.62v-.22a1.74,1.74,0,0,0-.45-1.3,1.7,1.7,0,0,0-1.23-.44C284.73,201.08,284.08,201.73,283.88,203Z" transform="translate(-128.6 -83.22)"/><path class="cls-1" d="M300.78,205.33a1,1,0,0,1,.19.64v2.28a.88.88,0,0,1-.26.65.87.87,0,0,1-.66.27h-7a.87.87,0,0,1-.63-.24.81.81,0,0,1-.25-.62V208a1.31,1.31,0,0,1,.12-.56,3,3,0,0,1,.38-.58l4.57-5.51h-2.66v.7c0,.57-.26.86-.79.86H293c-.53,0-.8-.29-.8-.86V200.1a.89.89,0,0,1,.92-.91H300a.89.89,0,0,1,.63.23.81.81,0,0,1,.25.62v.34a1.31,1.31,0,0,1-.12.56,2.31,2.31,0,0,1-.38.56L295.76,207h2.86v-1a1,1,0,0,1,.19-.64.72.72,0,0,1,.61-.24h.75A.72.72,0,0,1,300.78,205.33Z" transform="translate(-128.6 -83.22)"/></svg>