<svg id="Calque_1" data-name="Calque 1" xmlns="http://www.w3.org/2000/svg" viewBox="0 0 168.21 125.84"><defs><style>.cls-1{fill:#29695a;}</style></defs><path class="cls-1" d="M140.53,259.3c-1.84-21.05-6.3-54.35-10.29-75.07-1.33-6.92-4.41-23.66,3-28.65,6.61-4.43,8.88,6,11.2,10.73a82.38,82.38,0,0,0,8.06,13.8c5.66,7.37,14.79,13.57,24.34,9.62,8.77-3.64,12.49-14.21,16.38-22,1-2,2-4,3.08-5.9,1.3-2.34-.09-2.15.21-1.92,4.34,3.22,5.36,15,6.23,19.92,2.52,14.35,2.32,28.76,3.82,43.16,1.72,16.58,16.65,23.24,32.24,22.17C257,243.9,271.45,231.45,278.19,215c8-19.67,6.72-44.92-8-61.26C257,139,235.53,134,217.37,141.57c-7.77,3.27,3.44,10.19,8.69,8,31.18-13.08,46.59,25.6,42.07,50-2.09,11.33-7.45,22.87-16.8,30-12.19,9.28-30.08,8.7-31.07-9.59-.71-12.91-1.33-25.82-3.45-38.6-1.49-9-3.3-21.66-11.06-27.7-17.36-13.51-24.75,10.25-31.44,21-3.29,5.28-4.11,7.74-9,3.21-7-6.43-8.3-17.72-14-25.11-5.86-7.57-16.41-11.9-25.33-6.9-12.69,7.1-12.08,24.9-9.76,37.14,4,21.12,8.65,54.75,10.53,76.21.49,5.6,14.39,6.82,13.8.1Z" transform="translate(-114.88 -138.05)"/></svg>