<svg id="visual" viewBox="0 0 900 600" width="900" height="600" xmlns="http://www.w3.org/2000/svg" xmlns:xlink="http://www.w3.org/1999/xlink" version="1.1"><rect x="0" y="0" width="900" height="600" fill="#ffffff"></rect><path d="M317 0L329.8 25C342.7 50 368.3 100 351.2 150C334 200 274 250 236.5 300C199 350 184 400 201.8 450C219.7 500 270.3 550 295.7 575L321 600L0 600L0 575C0 550 0 500 0 450C0 400 0 350 0 300C0 250 0 200 0 150C0 100 0 50 0 25L0 0Z" fill="#29695a" stroke-linecap="round" stroke-linejoin="miter"></path></svg>